<svg width="145" height="45" viewBox="0 0 145 45" fill="none" xmlns="http://www.w3.org/2000/svg">
<circle cx="22" cy="22.1689" r="22" fill="#FFF4E6"/>
<path d="M18 28C14.97 27.804 13 25.691 13 22.62C13 18.313 15.75 13.995 18.5 14C21.114 14.005 23.748 17.915 24 22M23 32C20 32 18.132 29.882 18.005 27C18 24 20 22 23 22C27 22 31.01 24.5 31.005 27C31 29.5 27 32 23 32Z" stroke="#E8590C" stroke-width="2" stroke-linecap="round" stroke-linejoin="round"/>
<path d="M55.3942 29.1689H52.4283L56.9474 16.078H60.5142L65.027 29.1689H62.0611L58.782 19.0695H58.6797L55.3942 29.1689ZM55.2088 24.0233H62.2145V26.1838H55.2088V24.0233ZM69.7124 29.3287C68.9666 29.3287 68.2912 29.1369 67.6861 28.7534C67.0852 28.3656 66.608 27.7967 66.2543 27.0467C65.9048 26.2925 65.7301 25.3677 65.7301 24.2726C65.7301 23.1476 65.9112 22.2122 66.2734 21.4665C66.6357 20.7165 67.1172 20.1561 67.718 19.7854C68.3232 19.4104 68.9858 19.2229 69.706 19.2229C70.2557 19.2229 70.7138 19.3166 71.0803 19.5041C71.451 19.6874 71.7493 19.9175 71.9751 20.1945C72.2053 20.4672 72.38 20.7356 72.4993 20.9998H72.5824V16.078H75.299V29.1689H72.6143V27.5964H72.4993C72.3714 27.8692 72.1903 28.1398 71.956 28.4082C71.7259 28.6724 71.4254 28.8919 71.0547 29.0666C70.6882 29.2413 70.2408 29.3287 69.7124 29.3287ZM70.5753 27.1618C71.0142 27.1618 71.3849 27.0425 71.6875 26.8038C71.9943 26.5609 72.2287 26.2222 72.3906 25.7875C72.5568 25.3528 72.6399 24.8436 72.6399 24.2598C72.6399 23.676 72.5589 23.1689 72.397 22.7385C72.2351 22.3081 72.0007 21.9757 71.6939 21.7413C71.3871 21.507 71.0142 21.3898 70.5753 21.3898C70.1278 21.3898 69.7507 21.5112 69.4439 21.7541C69.1371 21.997 68.9048 22.3337 68.7472 22.7641C68.5895 23.1945 68.5107 23.693 68.5107 24.2598C68.5107 24.8308 68.5895 25.3358 68.7472 25.7747C68.9091 26.2094 69.1413 26.5503 69.4439 26.7974C69.7507 27.0403 70.1278 27.1618 70.5753 27.1618ZM77.5378 29.1689V19.3507H80.2608V29.1689H77.5378ZM78.9057 18.0851C78.5009 18.0851 78.1536 17.9508 77.8638 17.6824C77.5783 17.4097 77.4355 17.0837 77.4355 16.7044C77.4355 16.3294 77.5783 16.0077 77.8638 15.7392C78.1536 15.4665 78.5009 15.3301 78.9057 15.3301C79.3105 15.3301 79.6557 15.4665 79.9412 15.7392C80.231 16.0077 80.3759 16.3294 80.3759 16.7044C80.3759 17.0837 80.231 17.4097 79.9412 17.6824C79.6557 17.9508 79.3105 18.0851 78.9057 18.0851ZM86.8782 29.3606C85.8725 29.3606 85.0075 29.1476 84.283 28.7214C83.5629 28.291 83.0089 27.6945 82.6211 26.9317C82.2376 26.1689 82.0458 25.291 82.0458 24.2981C82.0458 23.2925 82.2397 22.4104 82.6275 21.6518C83.0195 20.8891 83.5756 20.2946 84.2958 19.8685C85.016 19.4381 85.8725 19.2229 86.8654 19.2229C87.7219 19.2229 88.4719 19.3784 89.1154 19.6895C89.7589 20.0006 90.2681 20.4373 90.6431 20.9998C91.0181 21.5623 91.2248 22.2229 91.2631 22.9814H88.6935C88.6211 22.4913 88.4293 22.0972 88.1183 21.7989C87.8114 21.4963 87.4087 21.345 86.9102 21.345C86.4883 21.345 86.1197 21.4601 85.8043 21.6902C85.4933 21.916 85.2504 22.2463 85.0756 22.681C84.9009 23.1156 84.8136 23.6419 84.8136 24.2598C84.8136 24.8862 84.8988 25.4189 85.0692 25.8578C85.244 26.2967 85.489 26.6312 85.8043 26.8614C86.1197 27.0915 86.4883 27.2065 86.9102 27.2065C87.2212 27.2065 87.5004 27.1426 87.7475 27.0148C87.9989 26.8869 88.2056 26.7016 88.3675 26.4587C88.5337 26.2115 88.6424 25.9153 88.6935 25.5702H91.2631C91.2205 26.3202 91.016 26.9807 90.6495 27.5517C90.2873 28.1185 89.7866 28.5616 89.1474 28.8812C88.5082 29.2008 87.7518 29.3606 86.8782 29.3606ZM93.0066 29.1689V19.3507H95.7296V29.1689H93.0066ZM94.3745 18.0851C93.9696 18.0851 93.6223 17.9508 93.3326 17.6824C93.0471 17.4097 92.9043 17.0837 92.9043 16.7044C92.9043 16.3294 93.0471 16.0077 93.3326 15.7392C93.6223 15.4665 93.9696 15.3301 94.3745 15.3301C94.7793 15.3301 95.1245 15.4665 95.41 15.7392C95.6998 16.0077 95.8446 16.3294 95.8446 16.7044C95.8446 17.0837 95.6998 17.4097 95.41 17.6824C95.1245 17.9508 94.7793 18.0851 94.3745 18.0851ZM102.347 29.3606C101.354 29.3606 100.495 29.1497 99.771 28.7278C99.0508 28.3017 98.4947 27.7094 98.1026 26.9508C97.7106 26.1881 97.5146 25.3038 97.5146 24.2981C97.5146 23.2839 97.7106 22.3976 98.1026 21.6391C98.4947 20.8763 99.0508 20.2839 99.771 19.8621C100.495 19.4359 101.354 19.2229 102.347 19.2229C103.34 19.2229 104.196 19.4359 104.917 19.8621C105.641 20.2839 106.199 20.8763 106.591 21.6391C106.983 22.3976 107.179 23.2839 107.179 24.2981C107.179 25.3038 106.983 26.1881 106.591 26.9508C106.199 27.7094 105.641 28.3017 104.917 28.7278C104.196 29.1497 103.34 29.3606 102.347 29.3606ZM102.36 27.2513C102.811 27.2513 103.189 27.1234 103.491 26.8677C103.794 26.6078 104.022 26.2541 104.175 25.8067C104.333 25.3592 104.412 24.85 104.412 24.279C104.412 23.7079 104.333 23.1987 104.175 22.7513C104.022 22.3038 103.794 21.9501 103.491 21.6902C103.189 21.4302 102.811 21.3003 102.36 21.3003C101.904 21.3003 101.52 21.4302 101.209 21.6902C100.902 21.9501 100.67 22.3038 100.512 22.7513C100.359 23.1987 100.282 23.7079 100.282 24.279C100.282 24.85 100.359 25.3592 100.512 25.8067C100.67 26.2541 100.902 26.6078 101.209 26.8677C101.52 27.1234 101.904 27.2513 102.36 27.2513ZM111.673 23.4927V29.1689H108.95V19.3507H111.545V21.0829H111.66C111.877 20.5119 112.242 20.0602 112.753 19.7278C113.265 19.3912 113.885 19.2229 114.613 19.2229C115.295 19.2229 115.89 19.372 116.397 19.6703C116.904 19.9686 117.298 20.3947 117.579 20.9487C117.86 21.4984 118.001 22.1547 118.001 22.9175V29.1689H115.278V23.4033C115.282 22.8024 115.129 22.3337 114.818 21.997C114.507 21.6561 114.078 21.4856 113.533 21.4856C113.167 21.4856 112.843 21.5645 112.561 21.7222C112.284 21.8798 112.067 22.1099 111.909 22.4125C111.756 22.7108 111.677 23.0709 111.673 23.4927ZM122.947 29.3543C122.32 29.3543 121.762 29.2456 121.272 29.0283C120.782 28.8067 120.394 28.4807 120.109 28.0503C119.828 27.6156 119.687 27.0744 119.687 26.4267C119.687 25.8812 119.787 25.4231 119.987 25.0524C120.188 24.6817 120.46 24.3834 120.806 24.1575C121.151 23.9317 121.543 23.7612 121.982 23.6462C122.425 23.5311 122.889 23.4501 123.375 23.4033C123.946 23.3436 124.406 23.2882 124.756 23.2371C125.105 23.1817 125.359 23.1007 125.517 22.9942C125.674 22.8876 125.753 22.73 125.753 22.5212V22.4828C125.753 22.078 125.625 21.7648 125.369 21.5432C125.118 21.3216 124.76 21.2108 124.296 21.2108C123.806 21.2108 123.416 21.3195 123.126 21.5368C122.836 21.7499 122.644 22.0183 122.551 22.3422L120.032 22.1376C120.16 21.541 120.411 21.0254 120.786 20.5908C121.161 20.1518 121.645 19.8152 122.237 19.5808C122.834 19.3422 123.524 19.2229 124.308 19.2229C124.854 19.2229 125.376 19.2868 125.874 19.4146C126.377 19.5425 126.823 19.7406 127.21 20.0091C127.602 20.2775 127.911 20.6227 128.137 21.0446C128.363 21.4622 128.476 21.9629 128.476 22.5467V29.1689H125.894V27.8074H125.817C125.659 28.1142 125.448 28.3848 125.184 28.6192C124.92 28.8493 124.602 29.0304 124.232 29.1625C123.861 29.2903 123.433 29.3543 122.947 29.3543ZM123.727 27.475C124.127 27.475 124.481 27.3962 124.788 27.2385C125.095 27.0766 125.335 26.8592 125.51 26.5865C125.685 26.3138 125.772 26.0048 125.772 25.6597V24.6177C125.687 24.6731 125.57 24.7243 125.421 24.7712C125.276 24.8138 125.112 24.8543 124.928 24.8926C124.745 24.9267 124.562 24.9587 124.379 24.9885C124.195 25.0141 124.029 25.0375 123.88 25.0588C123.561 25.1057 123.281 25.1802 123.043 25.2825C122.804 25.3848 122.619 25.5233 122.487 25.698C122.355 25.8685 122.289 26.0815 122.289 26.3372C122.289 26.7079 122.423 26.9913 122.691 27.1874C122.964 27.3791 123.309 27.475 123.727 27.475ZM130.589 29.1689V19.3507H133.312V29.1689H130.589ZM131.956 18.0851C131.552 18.0851 131.204 17.9508 130.915 17.6824C130.629 17.4097 130.486 17.0837 130.486 16.7044C130.486 16.3294 130.629 16.0077 130.915 15.7392C131.204 15.4665 131.552 15.3301 131.956 15.3301C132.361 15.3301 132.706 15.4665 132.992 15.7392C133.282 16.0077 133.427 16.3294 133.427 16.7044C133.427 17.0837 133.282 17.4097 132.992 17.6824C132.706 17.9508 132.361 18.0851 131.956 18.0851ZM143.662 22.1504L141.169 22.3038C141.126 22.0908 141.035 21.899 140.894 21.7285C140.754 21.5538 140.568 21.4153 140.338 21.3131C140.112 21.2065 139.842 21.1533 139.526 21.1533C139.104 21.1533 138.749 21.2427 138.459 21.4217C138.169 21.5964 138.024 21.8308 138.024 22.1248C138.024 22.3592 138.118 22.5574 138.305 22.7193C138.493 22.8812 138.815 23.0112 139.271 23.1092L141.048 23.4672C142.002 23.6632 142.714 23.9785 143.183 24.4132C143.651 24.8479 143.886 25.4189 143.886 26.1263C143.886 26.7697 143.696 27.3344 143.317 27.8202C142.942 28.306 142.426 28.6852 141.77 28.9579C141.118 29.2264 140.366 29.3606 139.513 29.3606C138.214 29.3606 137.178 29.09 136.407 28.5489C135.64 28.0034 135.19 27.2619 135.058 26.3244L137.737 26.1838C137.817 26.5801 138.013 26.8827 138.325 27.0915C138.636 27.296 139.034 27.3983 139.52 27.3983C139.997 27.3983 140.381 27.3067 140.67 27.1234C140.964 26.9359 141.114 26.6952 141.118 26.4011C141.114 26.154 141.009 25.9516 140.805 25.7939C140.6 25.632 140.285 25.5084 139.859 25.4231L138.158 25.0844C137.2 24.8926 136.486 24.5602 136.017 24.0872C135.553 23.6142 135.32 23.0112 135.32 22.2783C135.32 21.6476 135.491 21.1043 135.832 20.6483C136.177 20.1923 136.661 19.8408 137.283 19.5936C137.909 19.3464 138.642 19.2229 139.482 19.2229C140.722 19.2229 141.697 19.4849 142.409 20.0091C143.125 20.5332 143.543 21.247 143.662 22.1504Z" fill="black"/>
</svg>
